<!-- This work is licensed under the Creative Commons Attribution 4.0 International License. -->
<!-- To view a copy of this license, visit http://creativecommons.org/licenses/by/4.0/. -->

<svg width="315" height="430" xmlns="http://www.w3.org/2000/svg" xmlns:svg="http://www.w3.org/2000/svg">
  <!-- viewBox="100 100 300 300" width="200" height="200" -->
  <rect width="100%" height="100%" fill="#0a0e12" />
  <!-- <image height="100" href="https://ashitani.jp/golangtips/gopher.png" id="svg_1" transform="matrix(4.125, 0, 0, 4.125, -560.125, -753.25)" width="100" x="160" y="190.83"/> -->
  <g transform="translate(-150,-20)">
    <!-- Body border dots -->
    <path d="
      M 235 50
      L 205 72
      L 182 120
      L 185 177
      L 183 200
      L 180 280
      L 182 335
      L 186 375
      L 230 420
      L 280 435
      L 320 436
      L 393 415
      L 426 361
      L 435 315
      L 432 270
      L 430 214
      L 432 166
      L 420 99
      L 404 65
      L 340 38
      L 295 35
      Z
    " fill="none" stroke="#6ad7e5" stroke-width="4"/>

    <!-- Body fill dots -->
    <path d="
      M 235 50
      L 290 55
      L 312 59
      L 295 35
      L 290 55
      M 312 59
      L 340 38
      L 345 58
      L 312 59
      L 310 90
      L 289 85
      L 305 130
      L 310 90
      M 305 130
      L 325 120
      M 305 130
      L 280 120
      L 271 160
      L 215 150
      L 218 114
      M 215 150
      L 255 130
      L 271 160
      M 215 150
      L 185 177
      M 215 150
      L 182 120
      L 218 114
      M 182 120
      L 214 98
      L 205 72
      L 235 66
      L 235 50
      L 260 63
      L 290 55
      L 289 85
      M 345 58
      L 404 65
      L 385 80
      L 420 99
      L 380 115
      L 390 163
      L 430 214
      M 390 163
      L 360 125
      L 345 175
      L 325 120
      M 345 175
      L 305 130
      L 271 160
      L 300 244
      L 345 175
      L 374 230
      L 390 163
      L 432 166
      M 390 163
      L 345 175
      L 271 160
      L 230 199
      L 215 150
      M 230 199
      L 183 200
      M 230 199
      L 185 177
      M 230 199
      L 213 265
      L 183 200
      M 180 280
      L 213 265
      L 300 244
      L 374 230
      L 430 214
      L 369 277
      L 300 244
      L 250 322
      L 213 265
      L 220 350
      L 180 280
      M 220 350
      L 182 335
      M 220 350
      L 185 375
      M 220 350
      L 230 420
      L 299 388
      L 250 322
      L 220 350
      M 250 322
      L 325 300
      L 299 388
      L 370 365
      L 325 300
      L 405 311
      L 370 365
      M 405 311
      L 435 315
      M 405 311
      L 426 361
      L 370 365
      L 320 436
      L 299 388
      L 280 435
    " fill="none" stroke="#6ad7e5" stroke-width="3"/>

    <!-- Left eye  -->
    <path d="
      M 233 98
      L 214 98
      M 233 98
      L 218 114
      M 233 98
      L 289 85
      M 233 98
      L 280 120
      M 233 98
      L 235 66
      M 233 98
      L 260 63
      M 233 98
      L 255 130
      L 218 114
      L 214 96
      L 235 66
      L 260 63
      L 289 85
      L 280 120
      L 255 130
    " fill="none" stroke="white" stroke-width="4"/>

    <!-- Right eye  -->
    <path d="
      M 330 98
      L 310 90
      M 330 98
      L 325 120
      M 330 98
      L 360 125
      M 330 98
      L 380 115
      M 330 98
      L 385 80
      M 330 98
      L 345 58
      L 310 90
      L 325 120
      L 360 125
      L 380 115
      L 385 80
      L 345 58
    " fill="none" stroke="white" stroke-width="4"/>

    <!-- Left eye dots -->
    <circle cx="233" cy="98" r="9" fill="black"/>
    <circle cx="214" cy="98" r="5" fill="white"/>
    <circle cx="218" cy="114" r="5" fill="white"/>
    <circle cx="289" cy="85" r="5" fill="white"/>
    <circle cx="280" cy="120" r="5" fill="white"/>
    <circle cx="235" cy="66" r="5" fill="white"/>
    <circle cx="260" cy="63" r="5" fill="white"/>
    <circle cx="255" cy="130" r="5" fill="white"/>

    <!-- Right eye dots -->
    <circle cx="330" cy="98" r="9" fill="black"/>
    <circle cx="310" cy="90" r="5" fill="white"/>
    <circle cx="325" cy="120" r="5" fill="white"/>
    <circle cx="360" cy="125" r="5" fill="white"/>
    <circle cx="380" cy="115" r="5" fill="white"/>
    <circle cx="385" cy="80" r="5" fill="white"/>
    <circle cx="345" cy="58" r="5" fill="white"/>

    <!-- Body border dots -->
    <circle cx="235" cy="50" r="7" fill="#6ad7e5"/>
    <circle cx="205" cy="72" r="7" fill="#6ad7e5"/>
    <circle cx="182" cy="120" r="7" fill="#6ad7e5"/>
    <circle cx="185" cy="177" r="7" fill="#6ad7e5"/>
    <circle cx="183" cy="200" r="7" fill="#6ad7e5"/>
    <circle cx="180" cy="280" r="7" fill="#6ad7e5"/>
    <circle cx="182" cy="335" r="7" fill="#6ad7e5"/>
    <circle cx="186" cy="375" r="7" fill="#6ad7e5"/>
    <circle cx="230" cy="420" r="7" fill="#6ad7e5"/>
    <circle cx="280" cy="435" r="7" fill="#6ad7e5"/>
    <circle cx="320" cy="436" r="7" fill="#6ad7e5"/>
    <circle cx="393" cy="415" r="7" fill="#6ad7e5"/>
    <circle cx="426" cy="361" r="7" fill="#6ad7e5"/>
    <circle cx="435" cy="315" r="7" fill="#6ad7e5"/>
    <circle cx="432" cy="270" r="7" fill="#6ad7e5"/>
    <circle cx="430" cy="214" r="7" fill="#6ad7e5"/>
    <circle cx="432" cy="166" r="7" fill="#6ad7e5"/>
    <circle cx="420" cy="99" r="7" fill="#6ad7e5"/>
    <circle cx="404" cy="65" r="7" fill="#6ad7e5"/>
    <circle cx="340" cy="38" r="7" fill="#6ad7e5"/>
    <circle cx="295" cy="35" r="7" fill="#6ad7e5"/>

    <!-- Body fill dots -->
    <circle cx="290" cy="55" r="5" fill="#6ad7e5"/>
    <circle cx="312" cy="59" r="5" fill="#6ad7e5"/>
    <circle cx="305" cy="130" r="5" fill="#6ad7e5"/>
    <circle cx="271" cy="160" r="5" fill="#6ad7e5"/>
    <circle cx="345" cy="175" r="5" fill="#6ad7e5"/>
    <circle cx="390" cy="163" r="5" fill="#6ad7e5"/>
    <circle cx="215" cy="150" r="5" fill="#6ad7e5"/>
    <circle cx="230" cy="199" r="5" fill="#6ad7e5"/>
    <circle cx="300" cy="244" r="5" fill="#6ad7e5"/>
    <circle cx="213" cy="265" r="5" fill="#6ad7e5"/>
    <circle cx="374" cy="230" r="5" fill="#6ad7e5"/>
    <circle cx="369" cy="277" r="5" fill="#6ad7e5"/>
    <circle cx="405" cy="311" r="5" fill="#6ad7e5"/>
    <circle cx="323" cy="300" r="5" fill="#6ad7e5"/>
    <circle cx="250" cy="322" r="5" fill="#6ad7e5"/>
    <circle cx="220" cy="350" r="5" fill="#6ad7e5"/>
    <circle cx="299" cy="388" r="5" fill="#6ad7e5"/>
    <circle cx="370" cy="365" r="5" fill="#6ad7e5"/>

    <!-- Paws -->
    <circle cx="165" cy="254" r="9" fill="#f6d2a2"/>
    <circle cx="450" cy="254" r="9" fill="#f6d2a2"/>
    <circle cx="200" cy="430" r="9" fill="#f6d2a2"/>
    <circle cx="410" cy="430" r="9" fill="#f6d2a2"/>
  </g>
</svg>
